:FULLY-SPECIFIED
:FORCE-ALL-JOINTS-BE-3DOF
:DEGREES
356
root 9.27807 17.0765 14.1715 6.57483 8.52111 -2.04955
lfemur -16.2157 7.6821 -14.5261
ltibia 63.8672 0 0
lfoot -4.37058 11.5302 0
ltoes -3.94466 0 0
rfemur -23.032 4.04538 26.7453
rtibia 32.8406 0 0
rfoot -14.6205 1.55218 0
rtoes -10.5565 0 0
lowerback -6.23545 -2.16152 -1.03227
upperback -1.39455 -2.88026 2.86066
thorax 2.25528 -1.44892 3.29464
lowerneck -19.5981 -6.03011 -13.3774
upperneck 20.4838 -7.86304 14.0844
head 10.9898 -3.05186 6.17799
lclavicle -4.0171e-16 -7.75262e-15 0
lhumerus -37.7143 -20.9832 99.4798
lradius 25.1791 0 0
lwrist 6.64568 0 0
lhand -10.5536 -20.2383 0
lfingers 7.12502 0 0
lthumb 15.4497 9.1527 0
rclavicle -4.0171e-16 -7.75262e-15 0
rhumerus -41.5677 12.7394 -84.8089
rradius 39.2705 0 0
rwrist -23.0213 0 0
rhand -30.7088 -29.064 0
rfingers 7.12502 0 0
rthumb -4.00193 -59.006 0
357
root 9.27802 17.0812 14.2914 6.55326 8.27449 -2.0974
lfemur -17.6175 7.55037 -14.8296
ltibia 64.0413 0 0
lfoot -5.20681 11.4171 0
ltoes -3.90219 0 0
rfemur -22.4156 4.26783 26.8908
rtibia 32.593 0 0
rfoot -14.9493 1.57765 0
rtoes -10.9239 0 0
lowerback -6.18423 -2.00674 -0.957571
upperback -1.32005 -2.67963 2.84533
thorax 2.28692 -1.34921 3.25399
lowerneck -19.7553 -6.06165 -13.3603
upperneck 20.5599 -7.8849 14.0213
head 11.0478 -3.06121 6.14924
lclavicle 1.65654e-15 -3.57813e-15 0
lhumerus -38.4289 -21.2415 99.5592
lradius 25.6124 0 0
lwrist 7.41433 0 0
lhand -11.5079 -20.6285 0
lfingers 7.12502 0 0
lthumb 14.53 8.82416 0
rclavicle 1.65654e-15 -3.57813e-15 0
rhumerus -40.9871 13.3096 -84.8377
rradius 39.6257 0 0
rwrist -23.0332 0 0
rhand -30.5821 -28.363 0
rfingers 7.12502 0 0
rthumb -3.87964 -58.3071 0
358
root 9.27798 17.0859 14.4112 6.53169 8.02787 -2.14525
lfemur -19.0194 7.41865 -15.1332
ltibia 64.2154 0 0
lfoot -6.04303 11.304 0
ltoes -3.85972 0 0
rfemur -21.7991 4.49029 27.0363
rtibia 32.3455 0 0
rfoot -15.2782 1.60311 0
rtoes -11.2913 0 0
lowerback -6.13302 -1.85196 -0.882872
upperback -1.24554 -2.47899 2.83
thorax 2.31855 -1.24949 3.21333
lowerneck -19.9124 -6.09319 -13.3431
upperneck 20.636 -7.90675 13.9582
head 11.1058 -3.07055 6.1205
lclavicle 3.71479e-15 5.9635e-16 0
lhumerus -39.1435 -21.4998 99.6386
lradius 26.0457 0 0
lwrist 8.18297 0 0
lhand -12.4621 -21.0188 0
lfingers 7.12502 0 0
lthumb 13.6104 8.49563 0
rclavicle 3.71479e-15 5.9635e-16 0
rhumerus -40.4066 13.8799 -84.8666
rradius 39.9809 0 0
rwrist -23.045 0 0
rhand -30.4555 -27.662 0
rfingers 7.12502 0 0
rthumb -3.75734 -57.6083 0
359
root 9.27794 17.0905 14.5311 6.51012 7.78126 -2.19311
lfemur -20.4212 7.28693 -15.4368
ltibia 64.3895 0 0
lfoot -6.87926 11.1908 0
ltoes -3.81724 0 0
rfemur -21.1827 4.71275 27.1818
rtibia 32.098 0 0
rfoot -15.607 1.62857 0
rtoes -11.6587 0 0
lowerback -6.08181 -1.69719 -0.808173
upperback -1.17104 -2.27835 2.81468
thorax 2.35018 -1.14978 3.17268
lowerneck -20.0695 -6.12473 -13.3259
upperneck 20.7122 -7.9286 13.8952
head 11.1638 -3.0799 6.09176
lclavicle 5.77304e-15 4.77083e-15 0
lhumerus -39.858 -21.7582 99.7179
lradius 26.4789 0 0
lwrist 8.95161 0 0
lhand -13.4164 -21.4091 0
lfingers 7.12502 0 0
lthumb 12.6907 8.16709 0
rclavicle 5.77304e-15 4.77083e-15 0
rhumerus -39.8261 14.4501 -84.8954
rradius 40.3361 0 0
rwrist -23.0569 0 0
rhand -30.3289 -26.961 0
rfingers 7.12502 0 0
rthumb -3.63504 -56.9095 0
360
root 9.27789 17.0952 14.651 6.48855 7.53464 -2.24096
lfemur -21.8231 7.1552 -15.7403
ltibia 64.5636 0 0
lfoot -7.71549 11.0777 0
ltoes -3.77477 0 0
rfemur -20.5663 4.9352 27.3273
rtibia 31.8504 0 0
rfoot -15.9358 1.65404 0
rtoes -12.0261 0 0
lowerback -6.03059 -1.54242 -0.733473
upperback -1.09654 -2.07772 2.79935
thorax 2.38182 -1.05006 3.13203
lowerneck -20.2267 -6.15627 -13.3088
upperneck 20.7883 -7.95046 13.8321
head 11.2218 -3.08925 6.06301
lclavicle 7.83129e-15 8.94532e-15 0
lhumerus -40.5726 -22.0165 99.7973
lradius 26.9122 0 0
lwrist 9.72026 0 0
lhand -14.3706 -21.7993 0
lfingers 7.12502 0 0
lthumb 11.771 7.83855 0
rclavicle 7.83129e-15 8.94532e-15 0
rhumerus -39.2455 15.0204 -84.9243
rradius 40.6913 0 0
rwrist -23.0688 0 0
rhand -30.2022 -26.26 0
rfingers 7.12502 0 0
rthumb -3.51275 -56.2106 0
361
root 9.27785 17.0998 14.7709 6.46698 7.28803 -2.28882
lfemur -23.2249 7.02348 -16.0439
ltibia 64.7377 0 0
lfoot -8.55172 10.9646 0
ltoes -3.7323 0 0
rfemur -19.9499 5.15766 27.4728
rtibia 31.6029 0 0
rfoot -16.2646 1.6795 0
rtoes -12.3935 0 0
lowerback -5.97938 -1.38764 -0.658774
upperback -1.02203 -1.87708 2.78402
thorax 2.41345 -0.950348 3.09138
lowerneck -20.3838 -6.18781 -13.2916
upperneck 20.8645 -7.97231 13.769
head 11.2798 -3.0986 6.03427
lclavicle 9.88954e-15 1.31198e-14 0
lhumerus -41.2872 -22.2749 99.8767
lradius 27.3454 0 0
lwrist 10.4889 0 0
lhand -15.3249 -22.1896 0
lfingers 7.12502 0 0
lthumb 10.8513 7.51001 0
rclavicle 9.88954e-15 1.31198e-14 0
rhumerus -38.665 15.5906 -84.9531
rradius 41.0465 0 0
rwrist -23.0807 0 0
rhand -30.0756 -25.559 0
rfingers 7.12502 0 0
rthumb -3.39045 -55.5118 0
362
root 9.28031 17.0933 14.8898 6.45473 7.00305 -2.33594
lfemur -24.4583 6.9133 -16.277
ltibia 64.3144 0 0
lfoot -9.37337 11.0626 0
ltoes -4.04478 0 0
rfemur -19.4074 5.32354 27.6112
rtibia 31.492 0 0
rfoot -16.591 1.71873 0
rtoes -12.6578 0 0
lowerback -5.95533 -1.25754 -0.610838
upperback -1.00188 -1.70657 2.77249
thorax 2.40964 -0.864937 3.06637
lowerneck -20.2314 -6.16194 -13.3439
upperneck 20.8198 -7.95297 13.8452
head 11.2369 -3.09128 6.07524
lclavicle 1.01546e-14 7.62008e-15 0
lhumerus -41.8612 -21.8762 99.6371
lradius 27.5838 0 0
lwrist 10.7658 0 0
lhand -15.1361 -22.2027 0
lfingers 7.12502 0 0
lthumb 11.0334 7.48685 0
rclavicle 1.01546e-14 7.62008e-15 0
rhumerus -38.1892 15.9515 -84.9281
rradius 41.3695 0 0
rwrist -23.0452 0 0
rhand -30.0612 -25.7125 0
rfingers 7.12502 0 0
rthumb -3.37653 -55.6655 0
363
root 9.28277 17.0869 15.0087 6.44247 6.71806 -2.38305
lfemur -25.6917 6.80312 -16.5101
ltibia 63.8911 0 0
lfoot -10.195 11.1605 0
ltoes -4.35726 0 0
rfemur -18.8648 5.48941 27.7495
rtibia 31.3811 0 0
rfoot -16.9175 1.75795 0
rtoes -12.9222 0 0
lowerback -5.93129 -1.12745 -0.562901
upperback -0.981721 -1.53606 2.76095
thorax 2.40583 -0.779526 3.04137
lowerneck -20.0789 -6.13606 -13.3962
upperneck 20.7751 -7.93364 13.9214
head 11.194 -3.08396 6.11621
lclavicle 1.04196e-14 2.12037e-15 0
lhumerus -42.4352 -21.4774 99.3974
lradius 27.8221 0 0
lwrist 11.0426 0 0
lhand -14.9474 -22.2158 0
lfingers 7.12502 0 0
lthumb 11.2154 7.46369 0
rclavicle 1.04196e-14 2.12037e-15 0
rhumerus -37.7134 16.3124 -84.9031
rradius 41.6925 0 0
rwrist -23.0097 0 0
rhand -30.0468 -25.866 0
rfingers 7.12502 0 0
rthumb -3.3626 -55.8192 0
364
root 9.28523 17.0804 15.1275 6.43022 6.43308 -2.43017
lfemur -26.925 6.69294 -16.7431
ltibia 63.4678 0 0
lfoot -11.0167 11.2584 0
ltoes -4.66974 0 0
rfemur -18.3223 5.65529 27.8879
rtibia 31.2702 0 0
rfoot -17.2439 1.79718 0
rtoes -13.1866 0 0
lowerback -5.90724 -0.997354 -0.514965
upperback -0.961566 -1.36555 2.74941
thorax 2.40202 -0.694115 3.01636
lowerneck -19.9265 -6.11019 -13.4486
upperneck 20.7304 -7.9143 13.9977
head 11.1512 -3.07664 6.15718
lclavicle 1.06847e-14 -3.37935e-15 0
lhumerus -43.0091 -21.0786 99.1577
lradius 28.0605 0 0
lwrist 11.3195 0 0
lhand -14.7586 -22.2289 0
lfingers 7.12502 0 0
lthumb 11.3974 7.44053 0
rclavicle 1.06847e-14 -3.37935e-15 0
rhumerus -37.2375 16.6733 -84.8781
rradius 42.0155 0 0
rwrist -22.9742 0 0
rhand -30.0324 -26.0195 0
rfingers 7.12502 0 0
rthumb -3.34868 -55.9729 0
365
root 9.28768 17.0739 15.2464 6.41796 6.1481 -2.47729
lfemur -28.1584 6.58277 -16.9762
ltibia 63.0446 0 0
lfoot -11.8383 11.3564 0
ltoes -4.98222 0 0
rfemur -17.7798 5.82117 28.0263
rtibia 31.1592 0 0
rfoot -17.5703 1.83641 0
rtoes -13.4509 0 0
lowerback -5.88319 -0.867259 -0.467028
upperback -0.941411 -1.19503 2.73788
thorax 2.39821 -0.608704 2.99135
lowerneck -19.7741 -6.08432 -13.5009
upperneck 20.6856 -7.89496 14.0739
head 11.1083 -3.06932 6.19814
lclavicle 1.09497e-14 -8.87907e-15 0
lhumerus -43.5831 -20.6799 98.9181
lradius 28.2988 0 0
lwrist 11.5964 0 0
lhand -14.5698 -22.242 0
lfingers 7.12502 0 0
lthumb 11.5795 7.41737 0
rclavicle 1.09497e-14 -8.87907e-15 0
rhumerus -36.7617 17.0343 -84.8531
rradius 42.3385 0 0
rwrist -22.9387 0 0
rhand -30.0179 -26.173 0
rfingers 7.12502 0 0
rthumb -3.33476 -56.1267 0
366
root 9.29014 17.0675 15.3653 6.4057 5.86311 -2.5244
lfemur -29.3918 6.47259 -17.2093
ltibia 62.6213 0 0
lfoot -12.66 11.4544 0
ltoes -5.2947 0 0
rfemur -17.2372 5.98704 28.1646
rtibia 31.0483 0 0
rfoot -17.8968 1.87563 0
rtoes -13.7152 0 0
lowerback -5.85915 -0.737163 -0.419092
upperback -0.921257 -1.02452 2.72635
thorax 2.3944 -0.523293 2.96635
lowerneck -19.6216 -6.05844 -13.5532
upperneck 20.6409 -7.87563 14.1501
head 11.0654 -3.062 6.23911
lclavicle 1.12148e-14 -1.43788e-14 0
lhumerus -44.1571 -20.2812 98.6784
lradius 28.5372 0 0
lwrist 11.8732 0 0
lhand -14.3811 -22.2551 0
lfingers 7.12502 0 0
lthumb 11.7616 7.39421 0
rclavicle 1.12148e-14 -1.43788e-14 0
rhumerus -36.2859 17.3952 -84.8281
rradius 42.6615 0 0
rwrist -22.9032 0 0
rhand -30.0035 -26.3265 0
rfingers 7.12502 0 0
rthumb -3.32083 -56.2804 0
367
root 9.2926 17.061 15.4842 6.39345 5.57813 -2.57152
lfemur -30.6252 6.36241 -17.4424
ltibia 62.198 0 0
lfoot -13.4816 11.5523 0
ltoes -5.60718 0 0
rfemur -16.6947 6.15292 28.303
rtibia 30.9374 0 0
rfoot -18.2232 1.91486 0
rtoes -13.9796 0 0
lowerback -5.8351 -0.607068 -0.371155
upperback -0.901102 -0.854012 2.71481
thorax 2.39059 -0.437882 2.94134
lowerneck -19.4692 -6.03257 -13.6055
upperneck 20.5962 -7.85629 14.2263
head 11.0225 -3.05468 6.28008
lclavicle 1.14798e-14 -1.98785e-14 0
lhumerus -44.7311 -19.8824 98.4388
lradius 28.7755 0 0
lwrist 12.1501 0 0
lhand -14.1923 -22.2682 0
lfingers 7.12502 0 0
lthumb 11.9436 7.37105 0
rclavicle 1.14798e-14 -1.98785e-14 0
rhumerus -35.8101 17.7561 -84.8031
rradius 42.9845 0 0
rwrist -22.8677 0 0
rhand -29.9891 -26.48 0
rfingers 7.12502 0 0
rthumb -3.30691 -56.4341 0
368
root 9.29976 17.0627 15.6054 6.36197 5.26878 -2.66367
lfemur -31.4735 6.21823 -17.5167
ltibia 61.0251 0 0
lfoot -13.7227 11.5962 0
ltoes -5.21272 0 0
rfemur -16.0031 6.15519 28.4496
rtibia 30.573 0 0
rfoot -18.3925 2.12209 0
rtoes -14.0083 0 0
lowerback -5.82372 -0.435194 -0.279227
upperback -0.864178 -0.631644 2.72707
thorax 2.41072 -0.326508 2.91972
lowerneck -19.5554 -6.0682 -13.4139
upperneck 20.7452 -7.89714 13.9426
head 11.0774 -3.08571 6.13495
lclavicle 9.41327e-15 -1.47764e-14 0
lhumerus -45.0872 -19.5333 98.2988
lradius 28.6889 0 0
lwrist 12.1575 0 0
lhand -14.2648 -22.2852 0
lfingers 7.12502 0 0
lthumb 11.8738 7.35805 0
rclavicle 9.41327e-15 -1.47764e-14 0
rhumerus -35.3327 17.8499 -84.6645
rradius 43.2156 0 0
rwrist -22.9318 0 0
rhand -30.2061 -26.0316 0
rfingers 7.12502 0 0
rthumb -3.51641 -55.9818 0
